<mxfile host="app.diagrams.net" modified="2023-10-01T07:28:36.071Z" agent="Mozilla/5.0 (Windows NT 10.0; Win64; x64; rv:109.0) Gecko/20100101 Firefox/118.0" etag="RiC2vN74jLxjNJcEBiRM" version="22.0.0" type="github">
  <diagram name="Page-1" id="ZFZNMDQ-Nj2fwGIMhTO-">
    <mxGraphModel dx="1434" dy="782" grid="1" gridSize="10" guides="1" tooltips="1" connect="1" arrows="1" fold="1" page="1" pageScale="1" pageWidth="850" pageHeight="1100" math="0" shadow="0">
      <root>
        <mxCell id="0" />
        <mxCell id="1" parent="0" />
        <mxCell id="9420kmqU3tQKIzeqtF9q-1" value="" style="rounded=0;whiteSpace=wrap;html=1;" vertex="1" parent="1">
          <mxGeometry x="260" y="50" width="360" height="340" as="geometry" />
        </mxCell>
        <mxCell id="9420kmqU3tQKIzeqtF9q-2" value="Sharing" style="text;html=1;strokeColor=none;fillColor=none;align=center;verticalAlign=middle;whiteSpace=wrap;rounded=0;fontSize=19;" vertex="1" parent="1">
          <mxGeometry x="395" y="60" width="60" height="30" as="geometry" />
        </mxCell>
        <mxCell id="9420kmqU3tQKIzeqtF9q-3" value="&lt;div&gt;General Accessability&lt;/div&gt;" style="ellipse;whiteSpace=wrap;html=1;" vertex="1" parent="1">
          <mxGeometry x="290" y="110" width="120" height="80" as="geometry" />
        </mxCell>
        <mxCell id="9420kmqU3tQKIzeqtF9q-10" value="Expand" style="edgeStyle=orthogonalEdgeStyle;rounded=0;orthogonalLoop=1;jettySize=auto;html=1;dashed=1;" edge="1" parent="1" source="9420kmqU3tQKIzeqtF9q-4" target="9420kmqU3tQKIzeqtF9q-3">
          <mxGeometry relative="1" as="geometry" />
        </mxCell>
        <mxCell id="9420kmqU3tQKIzeqtF9q-4" value="Select person with access" style="ellipse;whiteSpace=wrap;html=1;" vertex="1" parent="1">
          <mxGeometry x="470" y="110" width="120" height="80" as="geometry" />
        </mxCell>
        <mxCell id="9420kmqU3tQKIzeqtF9q-6" value="Sharing setting" style="ellipse;whiteSpace=wrap;html=1;" vertex="1" parent="1">
          <mxGeometry x="290" y="240" width="120" height="80" as="geometry" />
        </mxCell>
        <mxCell id="9420kmqU3tQKIzeqtF9q-7" value="Owner" style="shape=umlActor;verticalLabelPosition=bottom;verticalAlign=top;html=1;outlineConnect=0;" vertex="1" parent="1">
          <mxGeometry x="130" y="160" width="30" height="60" as="geometry" />
        </mxCell>
        <mxCell id="9420kmqU3tQKIzeqtF9q-8" value="" style="endArrow=none;html=1;rounded=0;entryX=0;entryY=0.5;entryDx=0;entryDy=0;" edge="1" parent="1" source="9420kmqU3tQKIzeqtF9q-7" target="9420kmqU3tQKIzeqtF9q-3">
          <mxGeometry width="50" height="50" relative="1" as="geometry">
            <mxPoint x="400" y="270" as="sourcePoint" />
            <mxPoint x="450" y="220" as="targetPoint" />
          </mxGeometry>
        </mxCell>
        <mxCell id="9420kmqU3tQKIzeqtF9q-9" value="" style="endArrow=none;html=1;rounded=0;entryX=0;entryY=0.5;entryDx=0;entryDy=0;" edge="1" parent="1" source="9420kmqU3tQKIzeqtF9q-7" target="9420kmqU3tQKIzeqtF9q-6">
          <mxGeometry width="50" height="50" relative="1" as="geometry">
            <mxPoint x="400" y="270" as="sourcePoint" />
            <mxPoint x="450" y="220" as="targetPoint" />
          </mxGeometry>
        </mxCell>
      </root>
    </mxGraphModel>
  </diagram>
</mxfile>
